<svg width="41" height="43" viewBox="0 0 41 43" fill="none" xmlns="http://www.w3.org/2000/svg">
<g clip-path="url(#clip0_490_265)">
<path d="M13.41 34.8745L7.74772 28.936C7.44748 28.621 7.27881 28.1938 7.27881 27.7484C7.27881 27.303 7.44748 26.8759 7.74772 26.5609L13.9762 20.0286L21.6845 18.4119C21.926 18.3612 22.1758 18.3738 22.4115 18.4485C22.6473 18.5232 22.8619 18.6577 23.0362 18.8402C23.2102 19.0231 23.3385 19.2481 23.4098 19.4954C23.481 19.7427 23.493 20.0046 23.4446 20.2579L21.9031 28.3422L15.6747 34.8745C15.3743 35.1894 14.967 35.3663 14.5424 35.3663C14.1177 35.3663 13.7104 35.1894 13.41 34.8745Z" fill="#BABABA"/>
<path d="M7.18095 33.0931L9.44588 35.4686C9.59605 35.6261 9.68041 35.8397 9.68041 36.0624C9.68041 36.2852 9.59605 36.4988 9.44588 36.6563L8.31341 37.844L4.91602 34.2809L6.04848 33.0931C6.19866 32.9356 6.40234 32.8472 6.61471 32.8472C6.82709 32.8472 7.03077 32.9356 7.18095 33.0931Z" fill="#BABABA"/>
<path d="M5.76598 35.1714L7.46467 36.9529L2.65158 42.0007C2.42632 42.237 2.1208 42.3697 1.80223 42.3697C1.48366 42.3697 1.17814 42.237 0.952881 42.0007C0.727623 41.7645 0.601074 41.4441 0.601074 41.11C0.601074 40.7759 0.727623 40.4554 0.952881 40.2192L5.76598 35.1714Z" fill="#BABABA"/>
<path d="M38.7979 0H2.20216C1.61837 0.000888627 1.05874 0.244503 0.645941 0.677439C0.233142 1.11037 0.000858329 1.69731 1.1033e-05 2.30957V25.8252C0.000858329 26.4375 0.233142 27.0244 0.645941 27.4573C1.05874 27.8903 1.61837 28.1339 2.20216 28.1348H6.70976C6.7851 28.6073 6.99927 29.0433 7.32235 29.3819L9.7287 31.9015L8.31372 33.3863L7.60743 32.6481C7.47736 32.5115 7.32288 32.4031 7.15284 32.3292C6.9828 32.2553 6.80054 32.2172 6.61647 32.2172C6.43239 32.2172 6.25013 32.2553 6.08009 32.3292C5.91005 32.4031 5.75558 32.5115 5.6255 32.6481L4.49159 33.8356C4.43578 33.8941 4.39151 33.9636 4.3613 34.04C4.3311 34.1165 4.31555 34.1984 4.31555 34.2812C4.31555 34.3639 4.3311 34.4459 4.3613 34.5223C4.39151 34.5987 4.43578 34.6682 4.49159 34.7267L4.91601 35.1718L0.527726 39.7742C0.189829 40.1285 0 40.6092 0 41.1103C0 41.6115 0.189829 42.0922 0.527726 42.4465C0.865623 42.8009 1.32391 43 1.80177 43C2.27963 43 2.73791 42.8009 3.07581 42.4465L7.46409 37.8442L7.88851 38.2893C7.94428 38.3478 8.01051 38.3943 8.0834 38.426C8.15629 38.4576 8.23442 38.4739 8.31332 38.4739C8.39222 38.4739 8.47035 38.4576 8.54324 38.426C8.61614 38.3943 8.68236 38.3478 8.73814 38.2893L9.87044 37.1018C10.0007 36.9654 10.104 36.8033 10.1745 36.625C10.245 36.4467 10.2813 36.2555 10.2813 36.0625C10.2813 35.8694 10.245 35.6783 10.1745 35.4999C10.104 35.3216 10.0007 35.1596 9.87044 35.0232L9.16255 34.2807L10.5783 32.7967L12.9847 35.3205C13.398 35.753 13.958 35.9958 14.5418 35.9958C15.1256 35.9958 15.6856 35.753 16.0989 35.3205L22.3282 28.7882C22.4118 28.6998 22.4688 28.5877 22.4924 28.4657L22.5556 28.1348H38.7979C39.3816 28.1339 39.9413 27.8903 40.3541 27.4573C40.7669 27.0244 40.9992 26.4375 41 25.8252V2.30957C40.9992 1.69731 40.7669 1.11037 40.3541 0.677439C39.9413 0.244503 39.3816 0.000888627 38.7979 0ZM2.22618 41.5555C2.1712 41.6173 2.10489 41.667 2.03122 41.7014C1.95755 41.7358 1.87802 41.7544 1.79738 41.7558C1.71674 41.7573 1.63664 41.7418 1.56186 41.7101C1.48707 41.6784 1.41914 41.6313 1.36211 41.5715C1.30508 41.5116 1.26012 41.4404 1.22991 41.362C1.19971 41.2835 1.18487 41.1995 1.18629 41.1149C1.18772 41.0304 1.20537 40.947 1.23819 40.8697C1.27102 40.7924 1.31835 40.7229 1.37735 40.6652L5.76564 36.0629L6.61446 36.9531L2.22618 41.5555ZM9.02161 36.2107L8.31372 36.9531L5.76564 34.2807L6.47353 33.5383C6.51105 33.4991 6.56188 33.4771 6.61486 33.4771C6.66785 33.4771 6.71868 33.4991 6.7562 33.5383L9.02161 35.9142C9.05902 35.9536 9.08003 36.0069 9.08003 36.0625C9.08003 36.118 9.05902 36.1713 9.02161 36.2107ZM39.7988 2.30957V6.71875H31.0503V1.25977H38.7979C39.0632 1.26021 39.3176 1.37096 39.5052 1.56774C39.6928 1.76452 39.7984 2.03128 39.7988 2.30957ZM23.4629 18.3926C23.219 18.1364 22.9184 17.9474 22.588 17.8425C22.2576 17.7376 21.9075 17.72 21.5691 17.7912L13.8607 19.4079C13.7448 19.4313 13.6379 19.4896 13.5532 19.5759L13.0047 20.1562H11.1509V14.6973H29.8491V20.1562H24.0643C24.0946 19.8339 24.0563 19.5086 23.9523 19.2036C23.8484 18.8987 23.6812 18.6217 23.4629 18.3926ZM11.1509 6.71875V1.25977H29.8491V6.71875H11.1509ZM19.8994 7.97852V13.4375H1.20118V7.97852H19.8994ZM9.94972 14.6973V20.1562H1.20118V14.6973H9.94972ZM31.0503 14.6973H39.7988V20.1562H31.0503V14.6973ZM21.1006 13.4375V7.97852H39.7988V13.4375H21.1006ZM2.20216 1.25977H9.94972V6.71875H1.20118V2.30957C1.20161 2.03128 1.3072 1.76452 1.49483 1.56774C1.68246 1.37096 1.93681 1.26021 2.20216 1.25977ZM6.84108 26.875H2.20216C1.93681 26.8746 1.68246 26.7638 1.49483 26.567C1.3072 26.3702 1.20161 26.1035 1.20118 25.8252V21.416H11.8035L7.31915 26.1191C7.11354 26.3353 6.95103 26.5923 6.84108 26.875ZM15.2493 34.4294C15.0615 34.6261 14.8069 34.7366 14.5414 34.7366C14.2759 34.7366 14.0213 34.6261 13.8335 34.4294L11.4312 31.9057L13.554 29.6784C13.613 29.6207 13.6604 29.5512 13.6932 29.4739C13.726 29.3967 13.7437 29.3133 13.7451 29.2287C13.7465 29.1441 13.7317 29.0601 13.7015 28.9817C13.6713 28.9032 13.6263 28.832 13.5693 28.7722C13.5122 28.7124 13.4443 28.6652 13.3695 28.6335C13.2947 28.6018 13.2146 28.5863 13.134 28.5878C13.0534 28.5893 12.9738 28.6078 12.9002 28.6422C12.8265 28.6766 12.7602 28.7263 12.7052 28.7882L10.5783 31.0146L8.17599 28.4909C7.98841 28.2939 7.88305 28.0268 7.88305 27.7484C7.88305 27.47 7.98841 27.203 8.17599 27.006L14.2763 20.6089L21.8037 19.0292C21.9482 18.999 22.0977 19.0067 22.2387 19.0515C22.3798 19.0964 22.5081 19.177 22.6123 19.2863C22.7165 19.3956 22.7934 19.5302 22.8362 19.6782C22.879 19.8261 22.8863 19.9828 22.8575 20.1344L21.3512 28.0289L15.2493 34.4294ZM38.7979 26.875H22.7959L23.8369 21.416H39.7988V25.8252C39.7984 26.1035 39.6928 26.3702 39.5052 26.567C39.3176 26.7638 39.0632 26.8746 38.7979 26.875Z" fill="#BABABA"/>
</g>
<defs>
<clipPath id="clip0_490_265">
<rect width="41" height="43" fill="white"/>
</clipPath>
</defs>
</svg>
