<svg width="66" height="66" viewBox="0 0 66 66" fill="none" xmlns="http://www.w3.org/2000/svg">
<path d="M33 0C14.7775 0 0 14.7775 0 33C0 51.2225 14.7775 66 33 66C51.2225 66 66 51.2225 66 33C66 14.7775 51.2225 0 33 0Z" fill="#B09A87"/>
<mask id="mask0_625_30" style="mask-type:alpha" maskUnits="userSpaceOnUse" x="0" y="0" width="66" height="66">
<path d="M33 0C14.7775 0 0 14.7775 0 33C0 51.2225 14.7775 66 33 66C51.2225 66 66 51.2225 66 33C66 14.7775 51.2225 0 33 0Z" fill="#263640"/>
</mask>
<g mask="url(#mask0_625_30)">
</g>
<g clip-path="url(#clip0_625_30)">
<path d="M52.6367 18.6299H13.3633C12.414 18.6299 11.6445 19.3819 11.6445 20.3096V43.8252C11.6445 44.7529 12.414 45.5049 13.3633 45.5049H52.6367C53.586 45.5049 54.3555 44.7529 54.3555 43.8252V20.3096C54.3555 19.3819 53.586 18.6299 52.6367 18.6299Z" fill="#D1A184"/>
<path d="M25.3911 52.8745L19.3145 46.936C18.9923 46.621 18.8113 46.1938 18.8113 45.7484C18.8113 45.303 18.9923 44.8759 19.3145 44.5609L25.9987 38.0286L34.2711 36.4119C34.5303 36.3612 34.7982 36.3738 35.0513 36.4485C35.3043 36.5232 35.5346 36.6577 35.7217 36.8402C35.9084 37.0231 36.0461 37.2481 36.1226 37.4954C36.199 37.7427 36.2119 38.0046 36.16 38.2579L34.5057 46.3422L27.8215 52.8745C27.4991 53.1894 27.0621 53.3663 26.6063 53.3663C26.1506 53.3663 25.7135 53.1894 25.3911 52.8745Z" fill="#FFCD69"/>
<path d="M18.7065 51.0931L21.1372 53.4686C21.2984 53.6261 21.3889 53.8397 21.3889 54.0624C21.3889 54.2852 21.2984 54.4988 21.1372 54.6563L19.9219 55.844L16.2759 52.2809L17.4912 51.0931C17.6524 50.9356 17.871 50.8472 18.0989 50.8472C18.3268 50.8472 18.5454 50.9356 18.7065 51.0931Z" fill="#D1A184"/>
<path d="M17.1876 53.1714L19.0106 54.9529L13.8453 60.0007C13.6036 60.237 13.2757 60.3697 12.9338 60.3697C12.5919 60.3697 12.2641 60.237 12.0223 60.0007C11.7806 59.7645 11.6448 59.4441 11.6448 59.11C11.6448 58.7759 11.7806 58.4554 12.0223 58.2192L17.1876 53.1714Z" fill="#FAF7F5"/>
<path d="M52.6367 18H13.3633C12.7368 18.0009 12.1362 18.2445 11.6932 18.6774C11.2502 19.1104 11.0009 19.6973 11 20.3096V43.8252C11.0009 44.4375 11.2502 45.0244 11.6932 45.4573C12.1362 45.8903 12.7368 46.1339 13.3633 46.1348H18.2007C18.2816 46.6073 18.5114 47.0433 18.8581 47.3819L21.4406 49.9015L19.922 51.3863L19.1641 50.6481C19.0245 50.5115 18.8587 50.4031 18.6762 50.3292C18.4937 50.2553 18.2981 50.2172 18.1006 50.2172C17.9031 50.2172 17.7075 50.2553 17.525 50.3292C17.3425 50.4031 17.1767 50.5115 17.0371 50.6481L15.8202 51.8356C15.7604 51.8941 15.7128 51.9636 15.6804 52.04C15.648 52.1165 15.6313 52.1984 15.6313 52.2812C15.6313 52.3639 15.648 52.4459 15.6804 52.5223C15.7128 52.5987 15.7604 52.6682 15.8202 52.7267L16.2757 53.1718L11.5663 57.7742C11.2037 58.1285 11 58.6092 11 59.1103C11 59.6115 11.2037 60.0922 11.5663 60.4465C11.929 60.8009 12.4208 61 12.9336 61C13.4464 61 13.9382 60.8009 14.3009 60.4465L19.0102 55.8442L19.4657 56.2893C19.5256 56.3478 19.5966 56.3943 19.6749 56.426C19.7531 56.4576 19.8369 56.4739 19.9216 56.4739C20.0063 56.4739 20.0901 56.4576 20.1684 56.426C20.2466 56.3943 20.3177 56.3478 20.3775 56.2893L21.5927 55.1018C21.7324 54.9654 21.8433 54.8033 21.919 54.625C21.9946 54.4467 22.0336 54.2555 22.0336 54.0625C22.0336 53.8694 21.9946 53.6783 21.919 53.4999C21.8433 53.3216 21.7324 53.1596 21.5927 53.0232L20.833 52.2807L22.3524 50.7967L24.9348 53.3205C25.3783 53.753 25.9793 53.9958 26.6058 53.9958C27.2324 53.9958 27.8334 53.753 28.2769 53.3205L34.962 46.7882C35.0516 46.6998 35.1129 46.5877 35.1381 46.4657L35.206 46.1348H52.6367C53.2632 46.1339 53.8638 45.8903 54.3068 45.4573C54.7498 45.0244 54.9991 44.4375 55 43.8252V20.3096C54.9991 19.6973 54.7498 19.1104 54.3068 18.6774C53.8638 18.2445 53.2632 18.0009 52.6367 18ZM13.3891 59.5555C13.3301 59.6173 13.2589 59.667 13.1798 59.7014C13.1008 59.7358 13.0154 59.7544 12.9289 59.7558C12.8424 59.7573 12.7564 59.7418 12.6761 59.7101C12.5959 59.6784 12.523 59.6313 12.4618 59.5715C12.4006 59.5116 12.3523 59.4404 12.3199 59.362C12.2875 59.2835 12.2716 59.1995 12.2731 59.1149C12.2746 59.0304 12.2936 58.947 12.3288 58.8697C12.364 58.7924 12.4148 58.7229 12.4781 58.6652L17.1875 54.0629L18.0984 54.9531L13.3891 59.5555ZM20.6817 54.2107L19.922 54.9531L17.1875 52.2807L17.9472 51.5383C17.9875 51.4991 18.042 51.4771 18.0989 51.4771C18.1557 51.4771 18.2103 51.4991 18.2506 51.5383L20.6817 53.9142C20.7219 53.9536 20.7444 54.0069 20.7444 54.0625C20.7444 54.118 20.7219 54.1713 20.6817 54.2107ZM53.7109 20.3096V24.7187H44.3223V19.2598H52.6367C52.9215 19.2602 53.1945 19.371 53.3958 19.5677C53.5972 19.7645 53.7105 20.0313 53.7109 20.3096ZM36.1797 36.3926C35.9179 36.1364 35.5953 35.9474 35.2408 35.8425C34.8862 35.7376 34.5105 35.72 34.1473 35.7912L25.8749 37.4079C25.7505 37.4313 25.6358 37.4896 25.5449 37.5759L24.9563 38.1562H22.9668V32.6973H43.0332V38.1562H36.8251C36.8576 37.8339 36.8165 37.5086 36.7049 37.2036C36.5934 36.8987 36.414 36.6217 36.1797 36.3926ZM22.9668 24.7187V19.2598H43.0332V24.7187H22.9668ZM32.3555 25.9785V31.4375H12.2891V25.9785H32.3555ZM21.6777 32.6973V38.1562H12.2891V32.6973H21.6777ZM44.3223 32.6973H53.7109V38.1562H44.3223V32.6973ZM33.6445 31.4375V25.9785H53.7109V31.4375H33.6445ZM13.3633 19.2598H21.6777V24.7187H12.2891V20.3096C12.2895 20.0313 12.4029 19.7645 12.6042 19.5677C12.8056 19.371 13.0785 19.2602 13.3633 19.2598ZM18.3417 44.875H13.3633C13.0785 44.8746 12.8056 44.7638 12.6042 44.567C12.4029 44.3702 12.2895 44.1035 12.2891 43.8252V39.416H23.6672L18.8547 44.1191C18.634 44.3353 18.4596 44.5923 18.3417 44.875ZM27.3651 52.4294C27.1635 52.6261 26.8903 52.7366 26.6054 52.7366C26.3205 52.7366 26.0473 52.6261 25.8457 52.4294L23.2676 49.9057L25.5458 47.6784C25.6091 47.6207 25.6599 47.5512 25.6951 47.4739C25.7304 47.3967 25.7493 47.3133 25.7508 47.2287C25.7524 47.1441 25.7364 47.0601 25.704 46.9817C25.6716 46.9032 25.6234 46.832 25.5622 46.7722C25.5009 46.7124 25.428 46.6652 25.3478 46.6335C25.2675 46.6018 25.1816 46.5863 25.095 46.5878C25.0085 46.5893 24.9231 46.6078 24.8441 46.6422C24.765 46.6766 24.6939 46.7263 24.6349 46.7882L22.3524 49.0146L19.7742 46.4909C19.5729 46.2939 19.4599 46.0268 19.4599 45.7484C19.4599 45.47 19.5729 45.203 19.7742 45.006L26.3209 38.6089L34.3991 37.0292C34.5542 36.999 34.7146 37.0067 34.8659 37.0515C35.0173 37.0964 35.155 37.177 35.2669 37.2863C35.3787 37.3956 35.4613 37.5302 35.5072 37.6782C35.5531 37.8261 35.5609 37.9828 35.53 38.1344L33.9135 46.0289L27.3651 52.4294ZM52.6367 44.875H35.4638L36.581 39.416H53.7109V43.8252C53.7105 44.1035 53.5972 44.3702 53.3958 44.567C53.1945 44.7638 52.9215 44.8746 52.6367 44.875Z" fill="#BB6B58"/>
</g>
<defs>
<clipPath id="clip0_625_30">
<rect width="44" height="43" fill="white" transform="translate(11 18)"/>
</clipPath>
</defs>
</svg>
