<svg width="51" height="53" viewBox="0 0 51 53" fill="none" xmlns="http://www.w3.org/2000/svg">
<path d="M25.9227 39.5044H40.9045C42.2837 39.5044 43.4015 38.3254 43.4015 36.8707V34.2371C43.4015 32.7825 42.2837 31.6035 40.9045 31.6035H25.9227C24.5436 31.6035 23.4258 32.7825 23.4258 34.2371V36.8707C23.4258 38.3254 24.5436 39.5044 25.9227 39.5044ZM25.9227 34.2371H40.9045V36.8707H25.9227V34.2371Z" fill="#BABABA"/>
<path d="M25.9227 28.9697H40.9045C42.2837 28.9697 43.4015 27.7907 43.4015 26.3361V23.7025C43.4015 22.2478 42.2837 21.0688 40.9045 21.0688H25.9227C24.5436 21.0688 23.4258 22.2478 23.4258 23.7025V26.3361C23.4258 27.7907 24.5436 28.9697 25.9227 28.9697ZM25.9227 23.7025H40.9045V26.3361H25.9227V23.7025Z" fill="#BABABA"/>
<path d="M14.6863 5.26709H9.69233C9.00235 5.26709 8.44385 5.85616 8.44385 6.5839V11.8511C8.44385 12.5789 9.00235 13.1679 9.69233 13.1679H14.6863C15.3762 13.1679 15.9347 12.5789 15.9347 11.8511V6.5839C15.9347 5.85616 15.3762 5.26709 14.6863 5.26709ZM13.4378 10.5343H10.9408V7.90071H13.4378V10.5343Z" fill="#BABABA"/>
<path d="M25.9225 11.8511V6.5839C25.9225 5.85616 25.364 5.26709 24.6741 5.26709H19.6801C18.9901 5.26709 18.4316 5.85616 18.4316 6.5839V11.8511C18.4316 12.5789 18.9901 13.1679 19.6801 13.1679H24.6741C25.364 13.1679 25.9225 12.5789 25.9225 11.8511ZM23.4256 10.5343H20.9286V7.90071H23.4256V10.5343Z" fill="#BABABA"/>
<path d="M14.6863 15.8018H9.69233C9.00235 15.8018 8.44385 16.3908 8.44385 17.1186V22.3858C8.44385 23.1135 9.00235 23.7026 9.69233 23.7026H14.6863C15.3762 23.7026 15.9347 23.1135 15.9347 22.3858V17.1186C15.9347 16.3908 15.3762 15.8018 14.6863 15.8018ZM13.4378 21.069H10.9408V18.4354H13.4378V21.069Z" fill="#BABABA"/>
<path d="M14.6863 26.3359H9.69233C9.00235 26.3359 8.44385 26.925 8.44385 27.6527V32.92C8.44385 33.6477 9.00235 34.2368 9.69233 34.2368H14.6863C15.3762 34.2368 15.9347 33.6477 15.9347 32.92V27.6527C15.9347 26.925 15.3762 26.3359 14.6863 26.3359ZM13.4378 31.6032H10.9408V28.9696H13.4378V31.6032Z" fill="#BABABA"/>
<path d="M14.6863 36.8706H9.69233C9.00235 36.8706 8.44385 37.4597 8.44385 38.1874V43.4546C8.44385 44.1824 9.00235 44.7715 9.69233 44.7715H14.6863C15.3762 44.7715 15.9347 44.1824 15.9347 43.4546V38.1874C15.9347 37.4597 15.3762 36.8706 14.6863 36.8706ZM13.4378 42.1378H10.9408V39.5042H13.4378V42.1378Z" fill="#BABABA"/>
<path d="M49.644 50.0387H48.3955V18.4353C48.3955 16.9806 47.2777 15.8017 45.8985 15.8017H30.9167V2.63362C30.9167 1.17895 29.7989 0 28.4197 0H5.94706C4.56787 0 3.45009 1.17895 3.45009 2.63362V50.0387H2.20161C1.51163 50.0387 0.953125 50.6278 0.953125 51.3555C0.953125 52.0832 1.51163 52.6723 2.20161 52.6723H49.644C50.3339 52.6723 50.8924 52.0832 50.8924 51.3555C50.8924 50.6278 50.3339 50.0387 49.644 50.0387ZM18.4319 18.4353V50.0387H5.94706V2.63362H28.4197V15.8017H20.9288C19.5497 15.8017 18.4319 16.9806 18.4319 18.4353ZM30.9167 50.0387H25.9228V44.7715H30.9167V50.0387ZM40.9046 50.0387H38.4076V44.7715H40.9046V50.0387ZM45.8985 50.0387H43.4015V44.7715C43.4015 43.3168 42.2838 42.1378 40.9046 42.1378H38.4076C37.0284 42.1378 35.9106 43.3168 35.9106 44.7715V50.0387H33.4137V44.7715C33.4137 43.3168 32.2959 42.1378 30.9167 42.1378H25.9228C24.5436 42.1378 23.4258 43.3168 23.4258 44.7715V50.0387H20.9288V18.4353H45.8985V50.0387Z" fill="#BABABA"/>
</svg>
