<svg width="66" height="66" viewBox="0 0 66 66" fill="none" xmlns="http://www.w3.org/2000/svg">
<path d="M33 0C14.7775 0 0 14.7775 0 33C0 51.2225 14.7775 66 33 66C51.2225 66 66 51.2225 66 33C66 14.7775 51.2225 0 33 0Z" fill="#B09A87"/>
<mask id="mask0_626_80" style="mask-type:alpha" maskUnits="userSpaceOnUse" x="0" y="0" width="66" height="66">
<path d="M33 0C14.7775 0 0 14.7775 0 33C0 51.2225 14.7775 66 33 66C51.2225 66 66 51.2225 66 33C66 14.7775 51.2225 0 33 0Z" fill="#263640"/>
</mask>
<g mask="url(#mask0_626_80)">
<path d="M21.1364 21.3481H15.8691V26.6154H21.1364V21.3481Z" fill="#A9D0D3"/>
<path d="M21.1356 31.8828H15.8684V37.15H21.1356V31.8828Z" fill="#A9D0D3"/>
<path d="M21.1356 52.9517H15.8684V58.2189H21.1356V52.9517Z" fill="#A9D0D3"/>
<path d="M31.6701 21.3481H26.4028V26.6154H31.6701V21.3481Z" fill="#A9D0D3"/>
<path d="M21.1356 42.417H15.8684V47.6842H21.1356V42.417Z" fill="#A9D0D3"/>
<path d="M39.571 58.2188H31.6702V66.1196H39.571V58.2188Z" fill="#A9D0D3"/>
<path d="M10.6008 66.1198V16.0811H36.937V31.8827H27.7193C26.9933 31.8827 26.4025 32.4736 26.4025 33.1996V66.1198H10.6008V66.1198ZM15.8681 58.2189H21.1353V52.9517H15.8681V58.2189ZM15.8681 47.6844H21.1353V42.4172H15.8681V47.6844ZM15.8681 37.15H21.1353V31.8827H15.8681V37.15ZM26.4025 26.6155H31.6698V21.3483H26.4025V26.6155ZM15.8681 26.6155H21.1353V21.3483H15.8681V26.6155Z" fill="#79615B"/>
<path d="M50.1052 37.1499H31.6699V42.4171H50.1052V37.1499Z" fill="#A9D0D3"/>
<path d="M50.105 47.6846H31.6697V52.9518H50.105V47.6846Z" fill="#A9D0D3"/>
<path d="M50.1049 58.2188H44.8376V66.1196H50.1049V58.2188Z" fill="#FF877F"/>
<path d="M50.1051 66.1198V59.5358C50.1051 58.8098 49.5143 58.219 48.7883 58.219H46.1547C45.4287 58.219 44.8379 58.8098 44.8379 59.5358V66.1198H39.5707V59.5358C39.5707 58.8098 38.9799 58.219 38.2539 58.219H32.9866C32.2606 58.219 31.6698 58.8098 31.6698 59.5358V66.1198H26.4026V31.8828H55.3724V66.1198H50.1051V66.1198ZM32.9866 47.6845C32.2606 47.6845 31.6698 48.2753 31.6698 49.0013V51.6349C31.6698 52.3609 32.2606 52.9517 32.9866 52.9517H48.7883C49.5143 52.9517 50.1051 52.3609 50.1051 51.6349V49.0013C50.1051 48.2753 49.5143 47.6845 48.7883 47.6845H32.9866ZM32.9866 37.15C32.2606 37.15 31.6698 37.7409 31.6698 38.4669V41.1005C31.6698 41.8265 32.2606 42.4173 32.9866 42.4173H48.7883C49.5143 42.4173 50.1051 41.8265 50.1051 41.1005V38.4669C50.1051 37.7409 49.5143 37.15 48.7883 37.15H32.9866Z" fill="#9A8984"/>
<path d="M32.9864 54.2685H48.7881C50.2428 54.2685 51.4217 53.0896 51.4217 51.6349V49.0013C51.4217 47.5466 50.2428 46.3677 48.7881 46.3677H32.9864C31.5317 46.3677 30.3528 47.5466 30.3528 49.0013V51.6349C30.3528 53.0896 31.5317 54.2685 32.9864 54.2685ZM32.9864 49.0013H48.7881V51.6349H32.9864V49.0013Z" fill="#573A32"/>
<path d="M32.9864 43.7339H48.7881C50.2428 43.7339 51.4217 42.5549 51.4217 41.1002V38.4666C51.4217 37.012 50.2428 35.833 48.7881 35.833H32.9864C31.5317 35.833 30.3528 37.012 30.3528 38.4666V41.1002C30.3528 42.5549 31.5317 43.7339 32.9864 43.7339ZM32.9864 38.4666H48.7881V41.1002H32.9864V38.4666Z" fill="#573A32"/>
<path d="M21.1353 20.0312H15.8681C15.1403 20.0312 14.5513 20.6203 14.5513 21.3481V26.6153C14.5513 27.343 15.1403 27.9321 15.8681 27.9321H21.1353C21.863 27.9321 22.4521 27.343 22.4521 26.6153V21.3481C22.4521 20.6203 21.863 20.0312 21.1353 20.0312ZM19.8185 25.2985H17.1849V22.6649H19.8185V25.2985Z" fill="#573A32"/>
<path d="M32.9865 26.6153V21.3481C32.9865 20.6203 32.3975 20.0312 31.6697 20.0312H26.4025C25.6748 20.0312 25.0857 20.6203 25.0857 21.3481V26.6153C25.0857 27.343 25.6748 27.9321 26.4025 27.9321H31.6697C32.3975 27.9321 32.9865 27.343 32.9865 26.6153ZM30.3529 25.2985H27.7193V22.6649H30.3529V25.2985Z" fill="#573A32"/>
<path d="M21.1353 30.5659H15.8681C15.1403 30.5659 14.5513 31.155 14.5513 31.8827V37.15C14.5513 37.8777 15.1403 38.4668 15.8681 38.4668H21.1353C21.863 38.4668 22.4521 37.8777 22.4521 37.15V31.8827C22.4521 31.155 21.863 30.5659 21.1353 30.5659ZM19.8185 35.8331H17.1849V33.1995H19.8185V35.8331Z" fill="#573A32"/>
<path d="M21.1353 41.1001H15.8681C15.1403 41.1001 14.5513 41.6892 14.5513 42.4169V47.6841C14.5513 48.4119 15.1403 49.0009 15.8681 49.0009H21.1353C21.863 49.0009 22.4521 48.4119 22.4521 47.6841V42.4169C22.4521 41.6892 21.863 41.1001 21.1353 41.1001ZM19.8185 46.3673H17.1849V43.7337H19.8185V46.3673Z" fill="#573A32"/>
<path d="M21.1353 51.6348H15.8681C15.1403 51.6348 14.5513 52.2238 14.5513 52.9516V58.2188C14.5513 58.9465 15.1403 59.5356 15.8681 59.5356H21.1353C21.863 59.5356 22.4521 58.9465 22.4521 58.2188V52.9516C22.4521 52.2238 21.863 51.6348 21.1353 51.6348ZM19.8185 56.902H17.1849V54.2684H19.8185V56.902Z" fill="#573A32"/>
<path d="M58.0059 64.8029H56.6891V33.1995C56.6891 31.7448 55.5101 30.5659 54.0555 30.5659H38.2538V17.3978C38.2538 15.9431 37.0748 14.7642 35.6202 14.7642H11.9176C10.463 14.7642 9.28401 15.9431 9.28401 17.3978V64.8029H7.9672C7.23946 64.8029 6.65039 65.3919 6.65039 66.1197C6.65039 66.8474 7.23946 67.4365 7.9672 67.4365H58.0059C58.7336 67.4365 59.3227 66.8474 59.3227 66.1197C59.3227 65.3919 58.7336 64.8029 58.0059 64.8029ZM25.0857 33.1995V64.8029H11.9176V17.3978H35.6202V30.5659H27.7193C26.2647 30.5659 25.0857 31.7448 25.0857 33.1995ZM38.2538 64.8029H32.9865V59.5356H38.2538V64.8029ZM48.7882 64.8029H46.1546V59.5356H48.7882V64.8029ZM54.0555 64.8029H51.4219V59.5356C51.4219 58.081 50.2429 56.902 48.7882 56.902H46.1546C44.7 56.902 43.521 58.081 43.521 59.5356V64.8029H40.8874V59.5356C40.8874 58.081 39.7084 56.902 38.2538 56.902H32.9865C31.5319 56.902 30.3529 58.081 30.3529 59.5356V64.8029H27.7193V33.1995H54.0555V64.8029Z" fill="#573A32"/>
</g>
</svg>
