<svg width="41" height="41" viewBox="0 0 41 41" fill="none" xmlns="http://www.w3.org/2000/svg">
<g id="icon" clip-path="url(#clip0_404_29)">
<rect id="Rectangle 20" x="0.5" y="17.1666" width="23.3333" height="23.3333" fill="#B09A87"/>
<path id="Vector" d="M33 5.50004C31.8952 5.50093 30.8359 5.9402 30.0547 6.72141C29.2735 7.50262 28.8342 8.56191 28.8333 9.66671C28.8333 10.2617 28.9633 10.8267 29.19 11.3417L25.9317 15.0067C24.8248 14.2427 23.5116 13.8334 22.1667 13.8334C20.9333 13.8334 19.7933 14.1934 18.8017 14.7767L15.0117 10.9884L14.9733 11.0267C15.3 10.3634 15.5 9.62504 15.5 8.83338C15.5 7.84447 15.2068 6.87777 14.6573 6.05553C14.1079 5.23328 13.327 4.59242 12.4134 4.21398C11.4998 3.83554 10.4945 3.73652 9.52455 3.92945C8.55465 4.12238 7.66373 4.59858 6.96447 5.29784C6.26521 5.99711 5.789 6.88802 5.59608 7.85792C5.40315 8.82783 5.50217 9.83316 5.8806 10.7468C6.25904 11.6604 6.89991 12.4413 7.72215 12.9907C8.5444 13.5401 9.5111 13.8334 10.5 13.8334C11.2917 13.8334 12.0283 13.6334 12.6933 13.3067L12.655 13.345L16.445 17.1334C15.8327 18.1501 15.5063 19.3132 15.5 20.5C15.5 22.1617 16.1333 23.665 17.1417 24.835L12.8467 29.1284C12.3653 28.9357 11.8518 28.8356 11.3333 28.8334C9.03667 28.8334 7.16667 30.7017 7.16667 33C7.16667 35.2984 9.03667 37.1667 11.3333 37.1667C13.63 37.1667 15.5 35.2984 15.5 33C15.5 32.465 15.39 31.9567 15.205 31.485L19.935 26.755C20.6367 27.005 21.38 27.1667 22.1667 27.1667C25.8433 27.1667 28.8333 24.1767 28.8333 20.5C28.8333 19.44 28.5617 18.4517 28.12 17.56L31.6483 13.5884C32.075 13.735 32.525 13.8334 33 13.8334C35.2983 13.8334 37.1667 11.965 37.1667 9.66671C37.1667 7.36838 35.2983 5.50004 33 5.50004ZM22.1667 23.8334C20.3283 23.8334 18.8333 22.3384 18.8333 20.5C18.8333 18.6617 20.3283 17.1667 22.1667 17.1667C24.005 17.1667 25.5 18.6617 25.5 20.5C25.5 22.3384 24.005 23.8334 22.1667 23.8334Z" fill="white"/>
</g>
<defs>
<clipPath id="clip0_404_29">
<rect width="40" height="40" fill="white" transform="translate(0.5 0.5)"/>
</clipPath>
</defs>
</svg>
