<svg width="40" height="41" viewBox="0 0 40 41" fill="none" xmlns="http://www.w3.org/2000/svg">
<g id="icon" clip-path="url(#clip0_404_49)">
<rect id="Rectangle 20" y="17.1667" width="23.3333" height="23.3333" fill="#B09A87"/>
<path id="Vector" d="M35 23.8333C35 22.9167 34.25 22.1667 33.3333 22.1667H30V25.5H33.3333C34.25 25.5 35 24.75 35 23.8333ZM33.3333 28.8333H30V32.1667H33.3333C34.25 32.1667 35 31.4167 35 30.5C35 29.5833 34.25 28.8333 33.3333 28.8333ZM20 23.8333H16.6667V30.5H20C20 32.3333 21.5 33.8333 23.3333 33.8333H28.3333V20.5H23.3333C21.5 20.5 20 22 20 23.8333Z" fill="white"/>
<path id="Vector_2" d="M8.33333 22.1667C8.33333 20.3334 9.83333 18.8334 11.6667 18.8334H14.1667C17.3833 18.8334 20 16.2167 20 13.0001C20 9.78341 17.3833 7.16675 14.1667 7.16675H8.33333C7.41667 7.16675 6.66667 7.91675 6.66667 8.83341C6.66667 9.75008 7.41667 10.5001 8.33333 10.5001H14.1667C15.55 10.5001 16.6667 11.6167 16.6667 13.0001C16.6667 14.3834 15.55 15.5001 14.1667 15.5001H11.6667C7.98333 15.5001 5 18.4834 5 22.1667C5 25.8501 7.98333 28.8334 11.6667 28.8334H15V25.5001H11.6667C9.83333 25.5001 8.33333 24.0001 8.33333 22.1667Z" fill="white"/>
</g>
<defs>
<clipPath id="clip0_404_49">
<rect width="40" height="40" fill="white" transform="translate(0 0.5)"/>
</clipPath>
</defs>
</svg>
