<svg width="40" height="38" viewBox="0 0 40 38" fill="none" xmlns="http://www.w3.org/2000/svg">
<path d="M34.9998 22.1667C34.9998 21.2958 34.2498 20.5833 33.3332 20.5833H29.9998V23.75H33.3332C34.2498 23.75 34.9998 23.0375 34.9998 22.1667ZM33.3332 26.9167H29.9998V30.0833H33.3332C34.2498 30.0833 34.9998 29.3708 34.9998 28.5C34.9998 27.6292 34.2498 26.9167 33.3332 26.9167ZM19.9998 22.1667H16.6665V28.5H19.9998C19.9998 30.2417 21.4998 31.6667 23.3332 31.6667H28.3332V19H23.3332C21.4998 19 19.9998 20.425 19.9998 22.1667Z" fill="#BABABA"/>
<path d="M8.33333 20.5835C8.33333 18.8418 9.83333 17.4168 11.6667 17.4168H14.1667C17.3833 17.4168 20 14.931 20 11.8752C20 8.81933 17.3833 6.3335 14.1667 6.3335H8.33333C7.41667 6.3335 6.66667 7.046 6.66667 7.91683C6.66667 8.78766 7.41667 9.50016 8.33333 9.50016H14.1667C15.55 9.50016 16.6667 10.561 16.6667 11.8752C16.6667 13.1893 15.55 14.2502 14.1667 14.2502H11.6667C7.98333 14.2502 5 17.0843 5 20.5835C5 24.0827 7.98333 26.9168 11.6667 26.9168H15V23.7502H11.6667C9.83333 23.7502 8.33333 22.3252 8.33333 20.5835Z" fill="#BABABA"/>
</svg>
