<svg width="66" height="66" viewBox="0 0 66 66" fill="none" xmlns="http://www.w3.org/2000/svg">
<path d="M33 0C14.7775 0 0 14.7775 0 33C0 51.2225 14.7775 66 33 66C51.2225 66 66 51.2225 66 33C66 14.7775 51.2225 0 33 0Z" fill="#B09A87"/>
<path d="M55.6651 50.9168C54.5345 47.2856 44.8646 44.3594 32.9468 44.3594C21.029 44.3594 11.4655 47.2856 10.3349 50.9168C9.98912 52.0474 9.60339 53.8697 9.23096 55.8914C15.2297 62.1296 23.6626 66.0002 33 66.0002C42.3374 66.0002 50.7703 62.1163 56.769 55.8914C56.4099 53.8697 56.0242 52.0341 55.6651 50.9168Z" fill="#1D1D1E"/>
<path d="M35.4607 59.9478V65.9066C39.0387 65.6406 42.4704 64.8026 45.636 63.4858V59.9478H35.4607Z" fill="#D6E7F2"/>
<path d="M45.636 59.8418H35.4607V60.6665H45.636V59.8418Z" fill="#556877"/>
<path d="M44.6118 61.5444H40.4618C40.3421 61.5444 40.249 61.6375 40.249 61.7572C40.249 61.877 40.3421 61.9701 40.4618 61.9701H44.6118C44.7315 61.9701 44.8246 61.877 44.8246 61.7572C44.8246 61.6375 44.7315 61.5444 44.6118 61.5444Z" fill="#556877"/>
<path d="M44.6118 63.127H40.4618C40.3421 63.127 40.249 63.2201 40.249 63.3398C40.249 63.4595 40.3421 63.5526 40.4618 63.5526H44.6118C44.7315 63.5526 44.8246 63.4595 44.8246 63.3398C44.8246 63.2201 44.7315 63.127 44.6118 63.127Z" fill="#556877"/>
<path d="M40.475 64.71C40.3553 64.71 40.2622 64.8031 40.2622 64.9228C40.2622 65.0425 40.3553 65.1356 40.475 65.1356H40.5548C41.1002 65.0026 41.6455 64.8696 42.1776 64.71H40.475V64.71Z" fill="#556877"/>
<path d="M39.3578 61.3315H36.2454V65.282H39.3578V61.3315Z" fill="#556877"/>
<path d="M32.9604 48.1764L27.4404 44.625C27.4404 44.625 30.4199 58.9902 33.0136 58.9902C35.6206 58.9902 38.5601 44.625 38.5601 44.625L32.9604 48.1764Z" fill="#D4D6D8"/>
<path d="M32.9738 42.1646L27.7065 42.8695L27.9593 44.612L32.9605 48.3496L38.0415 44.612L38.2942 42.8695L32.9738 42.1646Z" fill="#D4D6D8"/>
<path d="M38.1741 37.5225H27.8259C29.4353 42.3906 27.9589 44.6119 27.9589 44.6119L31.5369 45.4233H34.4631L38.0411 44.6119C38.0411 44.6119 36.5647 42.3906 38.1741 37.5225Z" fill="#E2A379"/>
<path d="M38.2939 42.8696L37.5225 47.7245L40.6748 44.9313L38.2939 42.8696Z" fill="#F3FAFF"/>
<path d="M27.7063 42.8696L25.3254 44.9313L28.4778 47.7245L27.7063 42.8696Z" fill="#F3FAFF"/>
<path d="M38.2941 42.8696L33.0002 45.4234C33.0002 45.4234 37.5226 47.7245 37.5492 47.6979L40.675 44.9313L38.2941 42.8696Z" fill="#F3FAFF"/>
<path d="M27.7063 42.8696L25.3254 44.9313L28.4512 47.6979C28.4778 47.7245 33.0002 45.4234 33.0002 45.4234L27.7063 42.8696Z" fill="#F3FAFF"/>
<path d="M33 45.4233L30.8984 46.4741L33 49.8792L35.0883 46.4741L33 45.4233Z" fill="#86B4D1"/>
<path d="M33.5318 48.1367H32.4544L30.9514 55.2262C31.6165 57.4342 32.3214 58.9771 32.9998 58.9771C33.6781 58.9771 34.3831 57.4475 35.0348 55.2661L33.5318 48.1367Z" fill="#86B4D1"/>
<path d="M33 60.9856V58.9771C33 58.9771 28.4776 47.7111 28.451 47.6978L26.1499 44.2129L24.4873 45.0642L25.5514 52.4197L27.7195 51.9275L26.1233 53.8828L33 60.9856Z" fill="#4A4A54"/>
<path d="M41.5127 45.0642L39.8501 44.2129L37.549 47.6978C37.5224 47.7244 33 58.9771 33 58.9771V60.9856L39.8767 53.8828L38.2805 51.9275L40.4486 52.4197L41.5127 45.0642Z" fill="#4A4A54"/>
<path d="M33 8.19336C26.5224 8.19336 21.2551 11.0132 21.2551 23.3034C21.2551 27.4666 22.0798 30.7254 23.3168 33.2393C26.0302 38.7726 30.7255 40.7012 33 40.7012C35.2745 40.7012 39.9698 38.7726 42.6832 33.2393C43.9202 30.7254 44.7448 27.4666 44.7448 23.3034C44.7448 11.0132 39.4776 8.19336 33 8.19336Z" fill="#F4B382"/>
<path d="M34.6097 34.4496C34.1575 34.3831 33.0003 34.7955 33.0003 34.7955C33.0003 34.7955 31.8431 34.3964 31.3775 34.4496C30.646 34.5561 29.542 35.0881 29.542 35.2743C29.542 35.5802 31.0849 36.4182 33.0003 36.4182C34.9156 36.4182 36.4586 35.5802 36.4586 35.2743C36.4586 35.2876 35.3546 34.5561 34.6097 34.4496Z" fill="#D89364"/>
<path d="M33.0003 35.4339C30.9519 35.4339 29.542 35.2876 29.542 35.2876C29.542 35.5935 31.0849 36.7773 33.0003 36.7773C34.9156 36.7773 36.4586 35.5935 36.4586 35.2876C36.4586 35.2876 35.0486 35.4339 33.0003 35.4339Z" fill="#CE8757"/>
<path d="M21.4682 23.6758C20.3509 23.862 19.4863 24.3541 20.1248 28.0518C20.7632 31.7495 21.548 31.9225 22.6653 31.7362L21.4682 23.6758Z" fill="#F4B382"/>
<path d="M42.2972 12.3968C41.2863 9.09813 36.7773 7.99414 32.9997 7.99414C26.5221 7.99414 21.2549 12.2239 21.2549 23.716L23.955 23.2638C23.955 22.918 36.8571 15.4427 36.8571 15.4427C38.1473 16.2009 40.1823 15.7088 40.1823 15.7088C40.1823 15.2033 42.0578 23.2638 42.0578 23.2638L44.7446 23.716C44.7446 16.4669 42.2972 12.3968 42.2972 12.3968Z" fill="#51250D"/>
<path d="M23.9549 23.2637L22.0129 18.728C21.4543 20.1778 21.2681 21.9735 21.2681 23.7159C21.2681 23.7159 22.4386 23.4632 22.4386 24.0618L22.811 27.7329L23.3297 27.4801C23.2765 24.4209 23.9549 23.2637 23.9549 23.2637Z" fill="#51250D"/>
<path d="M44.545 23.6758L43.3479 31.7362C44.4652 31.9225 45.25 31.7495 45.8884 28.0518C46.5136 24.3541 45.6623 23.8753 44.545 23.6758Z" fill="#F4B382"/>
<path d="M43.9998 18.728L42.0579 23.2637C42.0579 23.2637 42.7362 24.4342 42.7096 27.4934L43.2284 27.7462L43.6008 24.0751C43.6008 23.4765 44.7713 23.7292 44.7713 23.7292C44.758 21.9602 44.5718 20.1778 43.9998 18.728Z" fill="#51250D"/>
<path d="M43.1087 10.1757C41.3131 7.51544 36.3917 5.21436 33.0265 5.21436C29.6613 5.21436 24.7133 7.51544 22.9177 10.1757C21.2417 12.6497 20.8028 19.6726 21.428 19.6726H44.5985C45.0108 19.6726 44.7847 12.6497 43.1087 10.1757Z" fill="#E5AA17"/>
<path d="M21.1755 18.8208L21.2952 21.614C21.2952 21.614 26.3364 22.1328 33.0002 22.1328C39.6641 22.1328 44.6919 21.614 44.6919 21.614L44.7185 18.8208H21.1755Z" fill="#EFC76C"/>
<path d="M32.9999 4.76172C30.7388 4.76172 28.9165 5.21396 28.9165 6.15833V9.17768C28.9165 10.1221 30.7388 20.7363 32.9999 20.7363C35.2478 20.7363 37.0834 10.1221 37.0834 9.17768V6.15833C37.0834 5.22726 35.2478 4.76172 32.9999 4.76172Z" fill="#E5AA17"/>
<path d="M28.9296 6.15744C28.9163 6.14414 28.903 6.14414 28.903 6.15744C28.7966 6.41016 28.7567 6.66288 28.7168 6.9156C28.6902 7.03531 28.6902 7.16832 28.6769 7.28803C28.6636 7.40774 28.6636 7.54075 28.6636 7.66046C28.6636 7.78017 28.6636 7.91318 28.6769 8.03289C28.6902 8.1526 28.6902 8.28561 28.7168 8.40532C28.7567 8.65804 28.8099 8.91076 28.903 9.16348L28.9163 9.17678C28.9296 9.17678 28.9296 9.17678 28.9296 9.16348L28.9429 7.66046L28.9296 6.15744Z" fill="#C18D17"/>
<path d="M37.3227 7.28891C37.3094 7.1692 37.3094 7.03619 37.2828 6.91648C37.2429 6.66376 37.1896 6.41104 37.0965 6.15832L37.0832 6.14502C37.0699 6.14502 37.0699 6.14502 37.0699 6.15832L37.0566 7.66134L37.0699 9.16437C37.0699 9.16437 37.0699 9.17767 37.0832 9.17767C37.0965 9.17767 37.0965 9.17767 37.0965 9.16437C37.203 8.91165 37.2429 8.65893 37.2828 8.4062C37.3094 8.28649 37.3094 8.15348 37.3227 8.03377C37.336 7.91406 37.336 7.78105 37.336 7.66134C37.336 7.54163 37.336 7.42192 37.3227 7.28891Z" fill="#C18D17"/>
<path d="M35.4208 5.69277C35.4208 4.7484 34.3434 3.99023 33 3.99023C31.6565 3.99023 30.5792 4.7617 30.5792 5.69277L28.9697 18.5549C28.9697 19.4993 31.6698 20.2575 33 20.2575C34.3301 20.2575 37.0302 19.486 37.0302 18.5549L35.4208 5.69277Z" fill="#F4B21E"/>
<path d="M44.2264 17.1851C42.5504 17.1186 37.762 18.1827 33.0002 18.1827C28.305 18.1827 23.6363 17.1186 22.0135 17.1851C20.4041 17.1851 19.8721 20.3242 19.8721 20.3242C19.8721 20.3242 25.525 20.8961 33.0135 20.8961C40.5021 20.8961 46.1284 20.3242 46.1284 20.3242C46.1284 20.3242 45.623 17.1851 44.2264 17.1851Z" fill="#E5AA17"/>
<path d="M41.7386 17.7435C40.7544 17.81 39.7834 17.8632 38.7991 17.9031C36.8438 17.9829 34.8753 18.0494 32.92 18.0361C30.9648 18.0494 28.9962 17.9829 27.0409 17.9031C26.0567 17.8632 25.0857 17.81 24.1014 17.7435C23.1171 17.6903 22.1461 17.6105 21.1619 17.5439C22.1328 17.677 23.1038 17.7834 24.0881 17.8898C25.0591 17.9829 26.0434 18.0627 27.0276 18.1292C28.9829 18.2622 30.9515 18.3154 32.92 18.3287C34.8886 18.3154 36.8438 18.2622 38.8124 18.1292C39.7967 18.0627 40.7677 17.9829 41.7519 17.8898C42.7229 17.7834 43.7072 17.6903 44.6782 17.5439C43.6939 17.6105 42.7229 17.6903 41.7386 17.7435Z" fill="#C18D17"/>
</svg>
