<svg width="66" height="66" viewBox="0 0 66 66" fill="none" xmlns="http://www.w3.org/2000/svg">
<path d="M33 0C14.7775 0 0 14.7775 0 33C0 51.2225 14.7775 66 33 66C51.2225 66 66 51.2225 66 33C66 14.7775 51.2225 0 33 0Z" fill="#B09A87"/>
<path d="M48.0001 36.1667C48.0001 35.2958 47.2501 34.5833 46.3334 34.5833H43.0001V37.75H46.3334C47.2501 37.75 48.0001 37.0375 48.0001 36.1667ZM46.3334 40.9167H43.0001V44.0833H46.3334C47.2501 44.0833 48.0001 43.3708 48.0001 42.5C48.0001 41.6292 47.2501 40.9167 46.3334 40.9167ZM33.0001 36.1667H29.6667V42.5H33.0001C33.0001 44.2417 34.5001 45.6667 36.3334 45.6667H41.3334V33H36.3334C34.5001 33 33.0001 34.425 33.0001 36.1667Z" fill="#14171F"/>
<path d="M21.3333 34.5835C21.3333 32.8418 22.8333 31.4168 24.6667 31.4168H27.1667C30.3833 31.4168 33 28.931 33 25.8752C33 22.8193 30.3833 20.3335 27.1667 20.3335H21.3333C20.4167 20.3335 19.6667 21.046 19.6667 21.9168C19.6667 22.7877 20.4167 23.5002 21.3333 23.5002H27.1667C28.55 23.5002 29.6667 24.561 29.6667 25.8752C29.6667 27.1893 28.55 28.2502 27.1667 28.2502H24.6667C20.9833 28.2502 18 31.0843 18 34.5835C18 38.0827 20.9833 40.9168 24.6667 40.9168H28V37.7502H24.6667C22.8333 37.7502 21.3333 36.3252 21.3333 34.5835Z" fill="#E0E3EB"/>
</svg>
