<svg width="40" height="41" viewBox="0 0 40 41" fill="none" xmlns="http://www.w3.org/2000/svg">
<g id="icon" clip-path="url(#clip0_404_34)">
<rect id="Rectangle 20" y="17.1666" width="23.3333" height="23.3333" fill="#B09A87"/>
<path id="Vector" d="M18.3333 10.5H23.3333L28.8167 4.99996C28.9716 4.84374 29.1559 4.71975 29.359 4.63514C29.5621 4.55052 29.78 4.50696 30 4.50696C30.22 4.50696 30.4379 4.55052 30.641 4.63514C30.8441 4.71975 31.0284 4.84374 31.1833 4.99996L35.4833 9.31662C35.7938 9.62889 35.968 10.0513 35.968 10.4916C35.968 10.9319 35.7938 11.3544 35.4833 11.6666L31.6667 15.5H18.3333V18.8333C18.3333 19.2753 18.1577 19.6992 17.8452 20.0118C17.5326 20.3244 17.1087 20.5 16.6667 20.5C16.2246 20.5 15.8007 20.3244 15.4882 20.0118C15.1756 19.6992 15 19.2753 15 18.8333V13.8333C15 12.9492 15.3512 12.1014 15.9763 11.4763C16.6014 10.8511 17.4493 10.5 18.3333 10.5ZM8.33333 18.8333V25.5L4.51667 29.3166C4.20625 29.6289 4.03201 30.0513 4.03201 30.4916C4.03201 30.9319 4.20625 31.3544 4.51667 31.6666L8.81667 35.9833C8.97161 36.1395 9.15594 36.2635 9.35904 36.3481C9.56214 36.4327 9.77998 36.4763 10 36.4763C10.22 36.4763 10.4379 36.4327 10.641 36.3481C10.8441 36.2635 11.0284 36.1395 11.1833 35.9833L18.3333 28.8333H25C25.442 28.8333 25.866 28.6577 26.1785 28.3451C26.4911 28.0326 26.6667 27.6086 26.6667 27.1666V25.5H28.3333C28.7754 25.5 29.1993 25.3244 29.5118 25.0118C29.8244 24.6992 30 24.2753 30 23.8333V22.1666H31.6667C32.1087 22.1666 32.5326 21.991 32.8452 21.6785C33.1577 21.3659 33.3333 20.942 33.3333 20.5V18.8333H21.6667V20.5C21.6667 21.384 21.3155 22.2319 20.6904 22.857C20.0652 23.4821 19.2174 23.8333 18.3333 23.8333H15C14.1159 23.8333 13.2681 23.4821 12.643 22.857C12.0179 22.2319 11.6667 21.384 11.6667 20.5V15.5L8.33333 18.8333Z" fill="#292E3D"/>
</g>
<defs>
<clipPath id="clip0_404_34">
<rect width="40" height="40" fill="white" transform="translate(0 0.5)"/>
</clipPath>
</defs>
</svg>
