<svg width="40" height="40" viewBox="0 0 40 40" fill="none" xmlns="http://www.w3.org/2000/svg">
<g id="icon">
<path id="Vector" d="M15 25C10.55 25 1.66669 27.2333 1.66669 31.6667V35H28.3334V31.6667C28.3334 27.2333 19.45 25 15 25ZM36.8334 11.4C36.85 11.2167 36.8667 11.0333 36.8667 10.8333C36.8667 10.6333 36.85 10.45 36.8167 10.2667L38.05 9.3C38.1667 9.21667 38.1834 9.05 38.1167 8.93334L36.95 6.91667C36.8834 6.78334 36.7167 6.75 36.6 6.78334L35.1667 7.36667C34.8667 7.13334 34.5334 6.95 34.1834 6.8L33.9667 5.25C33.9541 5.17968 33.9171 5.11604 33.8623 5.07031C33.8074 5.02457 33.7381 4.99968 33.6667 5H31.3334C31.1834 5 31.0667 5.1 31.05 5.25L30.8334 6.8C30.4834 6.95 30.15 7.15 29.85 7.36667L28.4 6.78334C28.2667 6.73334 28.1167 6.78334 28.05 6.91667L26.8834 8.93334C26.8167 9.06667 26.8334 9.21667 26.95 9.3L28.1834 10.2667C28.1171 10.6415 28.1171 11.0251 28.1834 11.4L26.95 12.3667C26.8334 12.45 26.8167 12.6167 26.8834 12.7333L28.05 14.75C28.1167 14.8833 28.2834 14.9167 28.4 14.8833L29.85 14.3C30.15 14.5333 30.4834 14.7167 30.8334 14.8667L31.05 16.4167C31.0667 16.5667 31.1834 16.6667 31.3334 16.6667H33.6667C33.8167 16.6667 33.9334 16.5667 33.95 16.4167L34.1667 14.8667C34.5167 14.7167 34.85 14.5167 35.15 14.3L36.6 14.8833C36.7334 14.9333 36.8834 14.8833 36.95 14.75L38.1167 12.7333C38.1834 12.6 38.1667 12.45 38.05 12.3667L36.8334 11.4ZM32.5 12.9167C31.9475 12.9167 31.4176 12.6972 31.0269 12.3065C30.6362 11.9158 30.4167 11.3859 30.4167 10.8333C30.4167 10.2808 30.6362 9.7509 31.0269 9.3602C31.4176 8.9695 31.9475 8.75 32.5 8.75C33.0526 8.75 33.5825 8.9695 33.9732 9.3602C34.3639 9.7509 34.5834 10.2808 34.5834 10.8333C34.5834 11.3859 34.3639 11.9158 33.9732 12.3065C33.5825 12.6972 33.0526 12.9167 32.5 12.9167ZM33.2 19.4667L32.3667 18.0167C32.3167 17.9167 32.2 17.8833 32.1167 17.9167L31.0834 18.3333C30.8667 18.1667 30.6334 18.0333 30.3834 17.9333L30.2334 16.8333C30.2163 16.785 30.1847 16.743 30.143 16.7132C30.1012 16.6834 30.0513 16.6672 30 16.6667H28.3334C28.2334 16.6667 28.15 16.7333 28.1334 16.85L27.9834 17.95C27.7334 18.05 27.5 18.2 27.2834 18.35L26.25 17.9333C26.15 17.9 26.05 17.9333 26 18.0333L25.1667 19.4833C25.1167 19.5833 25.1334 19.6833 25.2167 19.75L26.1 20.4333C26.0834 20.5667 26.0667 20.7 26.0667 20.8333C26.0667 20.9667 26.0834 21.1167 26.1 21.2333L25.2167 21.9167C25.1334 21.9833 25.1167 22.1 25.1667 22.1833L26 23.6333C26.05 23.7333 26.1667 23.7667 26.25 23.7333L27.2834 23.3167C27.5 23.4833 27.7334 23.6167 27.9834 23.7167L28.1334 24.8167C28.15 24.9333 28.2334 25 28.3334 25H30C30.1 25 30.2 24.9333 30.2 24.8167L30.35 23.7167C30.6 23.6167 30.8334 23.4667 31.05 23.3167L32.0834 23.7333C32.1834 23.7667 32.2834 23.7333 32.3334 23.6333L33.1667 22.1833C33.2167 22.0833 33.2 21.9833 33.1167 21.9167L32.25 21.2333C32.2667 21.1 32.2834 20.9667 32.2834 20.8333C32.2834 20.7 32.2667 20.55 32.25 20.4333L33.1334 19.75C33.2167 19.6833 33.2334 19.5667 33.2 19.4667ZM29.1667 22.2167C28.4 22.2167 27.7834 21.5833 27.7834 20.8333C27.7834 20.0667 28.4167 19.45 29.1667 19.45C29.9167 19.45 30.55 20.0833 30.55 20.8333C30.55 21.6 29.9334 22.2167 29.1667 22.2167ZM7.90002 15H22.1167C22.5667 15 22.9334 14.6333 22.9334 14.1833V14.15C22.9334 13.9334 22.8473 13.7257 22.6942 13.5725C22.541 13.4194 22.3333 13.3333 22.1167 13.3333H21.6667C21.6667 10.8667 20.3167 8.75 18.3334 7.58334V9.16667C18.3334 9.63334 17.9667 10 17.5 10C17.0334 10 16.6667 9.63334 16.6667 9.16667V6.9C16.1334 6.76667 15.5834 6.66667 15 6.66667C14.4167 6.66667 13.8667 6.76667 13.3334 6.9V9.16667C13.3334 9.63334 12.9667 10 12.5 10C12.0334 10 11.6667 9.63334 11.6667 9.16667V7.58334C9.68335 8.75 8.33335 10.8667 8.33335 13.3333H7.90002C7.79277 13.3333 7.68658 13.3545 7.5875 13.3955C7.48841 13.4365 7.39838 13.4967 7.32255 13.5725C7.24672 13.6484 7.18656 13.7384 7.14552 13.8375C7.10448 13.9366 7.08335 14.0428 7.08335 14.15V14.2C7.08335 14.6333 7.45002 15 7.90002 15ZM15 21.6667C18.1 21.6667 20.6834 19.5333 21.4334 16.6667H8.56669C9.31669 19.5333 11.9 21.6667 15 21.6667Z" fill="#996B46"/>
</g>
</svg>
