<svg width="68" height="54" viewBox="0 0 68 54" fill="none" xmlns="http://www.w3.org/2000/svg">
<rect x="50.75" y="8.75" width="16.5" height="16.5" stroke="#BABABA" stroke-width="1.5"/>
<rect x="50.75" y="25.75" width="16.5" height="16.5" stroke="#BABABA" stroke-width="1.5"/>
<g clip-path="url(#clip0_608_146)">
<path d="M32.8755 7.53441H78.397C79.1231 7.53553 79.8193 7.84146 80.3328 8.38515C80.8462 8.92884 81.1352 9.66592 81.1362 10.4348V39.9661C81.1352 40.7349 80.8462 41.472 80.3328 42.0157C79.8193 42.5594 79.1231 42.8653 78.397 42.8664H72.79C72.6962 43.4598 72.4298 44.0074 72.028 44.4327L69.0347 47.5967L70.7948 49.4614L71.6733 48.5343C71.8351 48.3628 72.0273 48.2267 72.2388 48.1339C72.4503 48.041 72.677 47.9932 72.906 47.9932C73.135 47.9932 73.3617 48.041 73.5732 48.1339C73.7847 48.2267 73.9769 48.3628 74.1387 48.5343L75.5491 50.0257C75.6186 50.0991 75.6736 50.1863 75.7112 50.2823C75.7488 50.3783 75.7681 50.4813 75.7681 50.5852C75.7681 50.6891 75.7488 50.792 75.7112 50.888C75.6736 50.984 75.6186 51.0712 75.5491 51.1447L75.0212 51.7037L80.4798 57.4834C80.9001 57.9284 81.1362 58.532 81.1362 59.1614C81.1362 59.7907 80.9001 60.3943 80.4798 60.8394C80.0595 61.2844 79.4894 61.5344 78.895 61.5344C78.3006 61.5344 77.7305 61.2844 77.3102 60.8394L71.8516 55.0597L71.3237 55.6187C71.2543 55.6922 71.172 55.7505 71.0813 55.7903C70.9906 55.8301 70.8934 55.8505 70.7953 55.8505C70.6971 55.8505 70.6 55.8301 70.5093 55.7903C70.4186 55.7505 70.3362 55.6922 70.2669 55.6187L68.8584 54.1273C68.6964 53.956 68.5679 53.7526 68.4802 53.5286C68.3925 53.3047 68.3473 53.0646 68.3473 52.8222C68.3473 52.5797 68.3925 52.3397 68.4802 52.1157C68.5679 51.8918 68.6964 51.6883 68.8584 51.517L69.7389 50.5846L67.9778 48.721L64.9846 51.8903C64.4705 52.4335 63.7739 52.7385 63.0477 52.7385C62.3214 52.7385 61.6249 52.4335 61.1108 51.8903L53.3621 43.687C53.2582 43.576 53.1872 43.4352 53.1579 43.282L53.0793 42.8664H32.8755C32.1493 42.8653 31.4532 42.5594 30.9397 42.0157C30.4262 41.472 30.1373 40.7349 30.1362 39.9661V10.4348C30.1373 9.66592 30.4262 8.92884 30.9397 8.38515C31.4532 7.84146 32.1493 7.53553 32.8755 7.53441ZM78.3671 59.7203C78.4355 59.7981 78.518 59.8604 78.6096 59.9036C78.7012 59.9469 78.8002 59.9701 78.9005 59.972C79.0008 59.9739 79.1004 59.9543 79.1934 59.9145C79.2865 59.8748 79.371 59.8155 79.4419 59.7404C79.5129 59.6653 79.5688 59.5758 79.6064 59.4773C79.6439 59.3788 79.6624 59.2733 79.6606 59.1671C79.6588 59.0609 79.6369 58.9562 79.5961 58.8592C79.5552 58.7621 79.4963 58.6748 79.423 58.6024L73.9644 52.8227L72.9085 53.9407L78.3671 59.7203ZM69.9142 53.0083L70.7948 53.9407L73.9644 50.5846L73.0838 49.6523C73.0371 49.603 72.9739 49.5754 72.908 49.5754C72.8421 49.5754 72.7789 49.603 72.7322 49.6523L69.9142 52.636C69.8677 52.6854 69.8416 52.7524 69.8416 52.8222C69.8416 52.8919 69.8677 52.9589 69.9142 53.0083ZM31.6304 10.4348V15.9719H42.5127V9.11645H32.8755C32.5454 9.117 32.229 9.25608 31.9956 9.5032C31.7622 9.75032 31.6309 10.0853 31.6304 10.4348ZM51.9507 30.6321C52.2541 30.3103 52.628 30.073 53.039 29.9413C53.45 29.8095 53.8854 29.7874 54.3064 29.8769L63.8948 31.9072C64.0391 31.9365 64.172 32.0098 64.2773 32.1181L64.9597 32.8469H67.2656V25.9914H44.0068V32.8469H51.2026C51.165 32.4421 51.2125 32.0336 51.3419 31.6506C51.4712 31.2676 51.6791 30.9198 51.9507 30.6321ZM67.2656 15.9719V9.11645H44.0068V15.9719H67.2656ZM56.3833 17.5539V24.4094H79.6421V17.5539H56.3833ZM68.7598 25.9914V32.8469H79.6421V25.9914H68.7598ZM42.5127 25.9914H31.6304V32.8469H42.5127V25.9914ZM54.8892 24.4094V17.5539H31.6304V24.4094H54.8892ZM78.397 9.11645H68.7598V15.9719H79.6421V10.4348C79.6416 10.0853 79.5102 9.75032 79.2768 9.5032C79.0434 9.25608 78.727 9.117 78.397 9.11645ZM72.6266 41.2844H78.397C78.727 41.2839 79.0434 41.1448 79.2768 40.8977C79.5102 40.6505 79.6416 40.3155 79.6421 39.9661V34.4289H66.4538L72.0319 40.3352C72.2877 40.6067 72.4898 40.9294 72.6266 41.2844ZM62.1676 50.7713C62.4013 51.0184 62.718 51.1571 63.0482 51.1571C63.3784 51.1571 63.6951 51.0184 63.9287 50.7713L66.917 47.602L64.2763 44.805C64.2029 44.7325 64.1441 44.6452 64.1032 44.5482C64.0624 44.4511 64.0405 44.3464 64.0387 44.2402C64.0369 44.134 64.0554 44.0285 64.0929 43.93C64.1305 43.8315 64.1864 43.742 64.2574 43.6669C64.3283 43.5918 64.4128 43.5326 64.5058 43.4928C64.5989 43.453 64.6985 43.4335 64.7988 43.4353C64.8991 43.4372 64.9981 43.4605 65.0897 43.5037C65.1813 43.5469 65.2638 43.6093 65.3322 43.687L67.9778 46.483L70.9661 43.3136C71.1994 43.0662 71.3305 42.7309 71.3305 42.3813C71.3305 42.0317 71.1994 41.6963 70.9661 41.4489L63.3779 33.4154L54.0146 31.4315C53.8348 31.3936 53.6489 31.4032 53.4735 31.4596C53.298 31.5159 53.1384 31.6172 53.0087 31.7545C52.8791 31.8917 52.7834 32.0607 52.7302 32.2465C52.677 32.4323 52.6679 32.6291 52.7037 32.8195L54.5774 42.7336L62.1676 50.7713ZM32.8755 41.2844H52.7804L51.4855 34.4289H31.6304V39.9661C31.6309 40.3155 31.7622 40.6505 31.9956 40.8977C32.229 41.1448 32.5454 41.2839 32.8755 41.2844Z" fill="#BABABA"/>
</g>
<defs>
<clipPath id="clip0_608_146">
<rect width="51" height="54" fill="white" transform="matrix(-1 0 0 1 51 0)"/>
</clipPath>
</defs>
</svg>
