<svg width="40" height="40" viewBox="0 0 40 40" fill="none" xmlns="http://www.w3.org/2000/svg">
<g id="icon">
<path id="Vector" d="M17.0231 6.87296C14.9297 6.23293 12.6539 7.1232 11.6528 8.97386L10.4492 11.1987C10.3062 11.4631 10.0786 11.6781 9.79866 11.8131L7.44292 12.9498C5.4834 13.8953 4.54076 16.0447 5.21844 18.0218L6.03317 20.3988C6.12996 20.6812 6.12996 20.9853 6.03317 21.2678L5.21844 23.6447C4.54076 25.6219 5.4834 27.7712 7.44292 28.7168L9.79866 29.8534C10.0786 29.9885 10.3062 30.2035 10.4492 30.4679L11.6528 32.6928C12.6539 34.5434 14.9297 35.4337 17.0231 34.7937L19.5399 34.0242C19.8389 33.9328 20.161 33.9328 20.46 34.0242L22.9768 34.7937C25.0703 35.4337 27.346 34.5434 28.3472 32.6928L29.5506 30.4679C29.6937 30.2035 29.9214 29.9885 30.2013 29.8534L32.5571 28.7168C34.5166 27.7712 35.4592 25.6219 34.7816 23.6447L33.9668 21.2678C33.87 20.9853 33.87 20.6812 33.9668 20.3988L34.7816 18.0218C35.4592 16.0447 34.5166 13.8953 32.5571 12.9498L30.2013 11.8131C29.9214 11.6781 29.6937 11.4631 29.5506 11.1987L28.3472 8.97386C27.346 7.1232 25.0703 6.23293 22.9768 6.87296L20.46 7.64243C20.161 7.73384 19.8389 7.73385 19.5399 7.64243L17.0231 6.87296ZM14.313 10.2575C14.6467 9.64059 15.4053 9.34382 16.1031 9.55717L18.62 10.3266C19.5171 10.6009 20.4828 10.6009 21.3799 10.3266L23.8969 9.55717C24.5946 9.34382 25.3532 9.64059 25.6869 10.2575L26.8905 12.4823C27.3194 13.2754 28.0025 13.9204 28.8422 14.3256L31.1978 15.4623C31.851 15.7774 32.1653 16.4939 31.9394 17.1529L31.1247 19.53C30.8343 20.3772 30.8343 21.2893 31.1247 22.1366L31.9394 24.5137C32.1653 25.1726 31.851 25.8891 31.1978 26.2043L28.8422 27.341C28.0025 27.7461 27.3194 28.3912 26.8905 29.1843L25.6869 31.4091C25.3532 32.026 24.5946 32.3228 23.8969 32.1095L21.3799 31.3399C20.4828 31.0657 19.5171 31.0657 18.62 31.3399L16.1031 32.1095C15.4053 32.3228 14.6467 32.026 14.313 31.4091L13.1094 29.1843C12.6804 28.3912 11.9975 27.7461 11.1578 27.341L8.80204 26.2043C8.14887 25.8891 7.83465 25.1726 8.06055 24.5137L8.87526 22.1366C9.16567 21.2893 9.16567 20.3772 8.87526 19.53L8.06055 17.1529C7.83465 16.4939 8.14887 15.7774 8.80204 15.4623L11.1578 14.3256C11.9975 13.9204 12.6804 13.2754 13.1094 12.4823L14.313 10.2575ZM12.1726 20.4911L18.5096 26.476L29.0713 16.5011L26.959 14.5061L18.5096 22.486L14.285 18.4959L12.1726 20.4911Z" fill="#996B46"/>
</g>
</svg>
