<svg width="40" height="40" viewBox="0 0 40 40" fill="none" xmlns="http://www.w3.org/2000/svg">
<g id="entypo-social:linkedin-with-circle" clip-path="url(#clip0_118_8197)">
<path id="Vector" d="M20 0.799805C9.39599 0.799805 0.799988 9.39581 0.799988 19.9998C0.799988 30.6038 9.39599 39.1998 20 39.1998C30.604 39.1998 39.2 30.6038 39.2 19.9998C39.2 9.39581 30.604 0.799805 20 0.799805ZM15.3 27.9578H11.412V15.4458H15.3V27.9578ZM13.332 13.9098C12.104 13.9098 11.31 13.0398 11.31 11.9638C11.31 10.8658 12.128 10.0218 13.382 10.0218C14.636 10.0218 15.404 10.8658 15.428 11.9638C15.428 13.0398 14.636 13.9098 13.332 13.9098ZM29.5 27.9578H25.612V21.0238C25.612 19.4098 25.048 18.3138 23.642 18.3138C22.568 18.3138 21.93 19.0558 21.648 19.7698C21.544 20.0238 21.518 20.3838 21.518 20.7418V27.9558H17.628V19.4358C17.628 17.8738 17.578 16.5678 17.526 15.4438H20.904L21.082 17.1818H21.16C21.672 16.3658 22.926 15.1618 25.024 15.1618C27.582 15.1618 29.5 16.8758 29.5 20.5598V27.9578Z" fill="#593C25" fill-opacity="0.74"/>
<rect id="Rectangle 22" x="10" y="9" width="21" height="22" fill="#846F5E"/>
<g id="XMLID_468_">
<path id="XMLID_469_" d="M25.2788 21.6413C25.236 21.6207 23.6321 20.831 23.3471 20.7284C23.2308 20.6866 23.1061 20.6458 22.9735 20.6458C22.757 20.6458 22.575 20.7537 22.4333 20.9657C22.2731 21.2039 21.7881 21.7708 21.6383 21.9402C21.6187 21.9625 21.592 21.9893 21.576 21.9893C21.5616 21.9893 21.3134 21.887 21.2383 21.8544C19.5178 21.107 18.2118 19.3098 18.0328 19.0068C18.0072 18.9632 18.0061 18.9434 18.0059 18.9434C18.0122 18.9203 18.07 18.8623 18.0999 18.8324C18.1873 18.746 18.2819 18.632 18.3735 18.5218C18.4168 18.4696 18.4603 18.4173 18.5029 18.368C18.6358 18.2135 18.6949 18.0935 18.7635 17.9545L18.7994 17.8822C18.9668 17.5496 18.8238 17.2689 18.7776 17.1783C18.7397 17.1024 18.0625 15.468 17.9905 15.2963C17.8173 14.8819 17.5885 14.689 17.2706 14.689C17.2411 14.689 17.2706 14.689 17.1469 14.6942C16.9963 14.7005 16.1759 14.8085 15.8132 15.0372C15.4285 15.2797 14.7778 16.0527 14.7778 17.4121C14.7778 18.6356 15.5543 19.7908 15.8876 20.2302C15.8959 20.2413 15.9111 20.2638 15.9332 20.296C17.2098 22.1605 18.8013 23.5422 20.4147 24.1867C21.9679 24.8071 22.7034 24.8788 23.1215 24.8788H23.1216C23.2973 24.8788 23.438 24.865 23.562 24.8528L23.6408 24.8453C24.1773 24.7977 25.3565 24.1868 25.6247 23.4414C25.836 22.8543 25.8917 22.2129 25.7511 21.9801C25.6548 21.8218 25.4889 21.7422 25.2788 21.6413Z" fill="white"/>
<path id="XMLID_470_" d="M20.1953 9C14.237 9 9.38955 13.811 9.38955 19.7245C9.38955 21.6371 9.90141 23.5094 10.8711 25.1479L9.01513 30.6226C8.98055 30.7246 9.00627 30.8375 9.08177 30.9144C9.13627 30.97 9.2102 31 9.2857 31C9.31463 31 9.34377 30.9956 9.3722 30.9866L15.0808 29.1726C16.6429 30.0072 18.4085 30.4478 20.1953 30.4478C26.1531 30.4479 31 25.6374 31 19.7245C31 13.811 26.1531 9 20.1953 9ZM20.1953 28.2139C18.5139 28.2139 16.8854 27.7284 15.4856 26.8098C15.4385 26.7789 15.3838 26.763 15.3288 26.763C15.2998 26.763 15.2706 26.7674 15.2423 26.7764L12.3826 27.6854L13.3058 24.9619C13.3356 24.8738 13.3207 24.7766 13.2657 24.7014C12.1997 23.2449 11.6362 21.5239 11.6362 19.7245C11.6362 15.0429 15.4758 11.234 20.1952 11.234C24.9141 11.234 28.7532 15.0429 28.7532 19.7245C28.7533 24.4056 24.9142 28.2139 20.1953 28.2139Z" fill="white"/>
</g>
</g>
<defs>
<clipPath id="clip0_118_8197">
<rect width="40" height="40" fill="white"/>
</clipPath>
</defs>
</svg>
